<svg 
 xmlns="http://www.w3.org/2000/svg"
 xmlns:xlink="http://www.w3.org/1999/xlink"
 width="23px" height="22px">
<path fill-rule="evenodd"  fill="rgb(251, 199, 4)"
 d="M18.944,19.248 C17.282,20.771 15.287,21.653 13.048,21.913 C9.883,22.283 7.042,21.461 4.592,19.416 C2.498,17.666 1.194,15.424 0.803,12.726 C0.235,8.804 1.423,5.448 4.368,2.782 C6.638,0.727 9.361,-0.147 12.415,0.020 C13.390,0.072 14.340,0.271 15.262,0.592 C15.873,0.805 16.176,1.409 15.978,1.994 C15.780,2.578 15.178,2.883 14.562,2.677 C13.413,2.295 12.240,2.129 11.031,2.223 C8.675,2.409 6.692,3.374 5.119,5.127 C3.399,7.045 2.677,9.317 2.903,11.878 C3.246,15.752 6.316,19.035 10.170,19.671 C14.938,20.458 19.360,17.423 20.313,12.695 C20.426,12.133 20.457,11.556 20.529,10.956 C20.447,10.345 20.379,9.714 20.273,9.089 C20.159,8.419 20.493,7.858 21.126,7.719 C21.716,7.590 22.296,7.968 22.421,8.609 C23.234,12.796 22.091,16.363 18.944,19.248 ZM21.131,4.206 C17.919,7.416 14.707,10.625 11.495,13.834 C10.864,14.464 10.278,14.463 9.645,13.831 C8.605,12.792 7.564,11.753 6.525,10.713 C6.191,10.380 6.074,9.984 6.233,9.534 C6.384,9.106 6.701,8.862 7.151,8.808 C7.528,8.762 7.837,8.909 8.101,9.174 C8.848,9.923 9.598,10.669 10.345,11.418 C10.411,11.484 10.467,11.562 10.590,11.709 C10.686,11.578 10.736,11.484 10.808,11.412 C13.745,8.474 16.684,5.540 19.621,2.602 C19.920,2.302 20.255,2.138 20.685,2.218 C21.494,2.369 21.857,3.305 21.359,3.961 C21.292,4.049 21.210,4.127 21.131,4.206 Z"/>
</svg>